<?xml version="1.0" encoding="UTF-8" standalone="no"?>
<!DOCTYPE svg PUBLIC "-//W3C//DTD SVG 1.1//EN"
 "http://www.w3.org/Graphics/SVG/1.1/DTD/svg11.dtd">
<!-- Generated by graphviz version 2.38.0 (20140413.2041)
 -->
<!-- Title: %3 Pages: 1 -->
<svg width="122pt" height="260pt"
 viewBox="0.00 0.00 122.47 260.00" xmlns="http://www.w3.org/2000/svg" xmlns:xlink="http://www.w3.org/1999/xlink">
<g id="graph0" class="graph" transform="scale(1 1) rotate(0) translate(4 256)">
<title>%3</title>
<polygon fill="white" stroke="none" points="-4,4 -4,-256 118.473,-256 118.473,4 -4,4"/>
<!-- A -->
<g id="node1" class="node"><title>A</title>
<ellipse fill="none" stroke="black" cx="73" cy="-234" rx="27" ry="18"/>
<text text-anchor="middle" x="73" y="-230.3" font-family="Times New Roman,serif" font-size="14.00">A</text>
</g>
<!-- B -->
<g id="node2" class="node"><title>B</title>
<ellipse fill="none" stroke="black" cx="73" cy="-162" rx="27" ry="18"/>
<text text-anchor="middle" x="73" y="-158.3" font-family="Times New Roman,serif" font-size="14.00">B</text>
</g>
<!-- A&#45;&#45;B -->
<g id="edge1" class="edge"><title>A&#45;&#45;B</title>
<path fill="none" stroke="black" d="M73,-215.697C73,-204.846 73,-190.917 73,-180.104"/>
</g>
<!-- C -->
<g id="node3" class="node"><title>C</title>
<ellipse fill="none" stroke="black" cx="27" cy="-90" rx="27" ry="18"/>
<text text-anchor="middle" x="27" y="-86.3" font-family="Times New Roman,serif" font-size="14.00">C</text>
</g>
<!-- A&#45;&#45;C -->
<g id="edge2" class="edge"><title>A&#45;&#45;C</title>
<path fill="none" stroke="black" d="M59.7877,-217.887C51.7919,-207.846 42.1708,-193.98 37,-180 28.2078,-156.23 26.5578,-126.648 26.5193,-108.292"/>
</g>
<!-- D -->
<g id="node4" class="node"><title>D</title>
<ellipse fill="none" stroke="black" cx="82" cy="-18" rx="27" ry="18"/>
<text text-anchor="middle" x="82" y="-14.3" font-family="Times New Roman,serif" font-size="14.00">D</text>
</g>
<!-- A&#45;&#45;D -->
<g id="edge3" class="edge"><title>A&#45;&#45;D</title>
<path fill="none" stroke="black" d="M86.7504,-218.069C94.9608,-208.1 104.619,-194.247 109,-180 124.828,-128.529 102.288,-64.7748 89.6146,-35.3225"/>
</g>
<!-- B&#45;&#45;C -->
<g id="edge4" class="edge"><title>B&#45;&#45;C</title>
<path fill="none" stroke="black" d="M62.5619,-145.116C55.0337,-133.66 44.9155,-118.263 37.3968,-106.821"/>
</g>
<!-- B&#45;&#45;D -->
<g id="edge5" class="edge"><title>B&#45;&#45;D</title>
<path fill="none" stroke="black" d="M74.0856,-143.871C75.8155,-116.578 79.1783,-63.5205 80.9105,-36.1893"/>
</g>
<!-- C&#45;&#45;D -->
<g id="edge6" class="edge"><title>C&#45;&#45;D</title>
<path fill="none" stroke="black" d="M38.9342,-73.811C48.1595,-62.0697 60.8696,-45.8932 70.0891,-34.1593"/>
</g>
</g>
</svg>
