<?xml version="1.0" encoding="UTF-8" standalone="no"?>
<!DOCTYPE svg PUBLIC "-//W3C//DTD SVG 1.1//EN"
 "http://www.w3.org/Graphics/SVG/1.1/DTD/svg11.dtd">
<!-- Generated by graphviz version 2.38.0 (20140413.2041)
 -->
<!-- Title: %3 Pages: 1 -->
<svg width="574pt" height="274pt"
 viewBox="0.00 0.00 574.00 274.00" xmlns="http://www.w3.org/2000/svg" xmlns:xlink="http://www.w3.org/1999/xlink">
<g id="graph0" class="graph" transform="scale(1 1) rotate(0) translate(4 270)">
<title>%3</title>
<polygon fill="#c0ffee" stroke="none" points="-4,4 -4,-270 570,-270 570,4 -4,4"/>
<text text-anchor="middle" x="283" y="-10.8" font-family="Times New Roman,serif" font-size="24.00" fill="#002299">家用車市場</text>
<!-- A -->
<g id="node1" class="node"><title>A</title>
<polygon fill="#c0eeff" stroke="black" points="252,-70 154,-70 154,-34 252,-34 252,-70"/>
<text text-anchor="middle" x="203" y="-45.8" font-family="Consolas" font-size="24.00">Toyota</text>
</g>
<!-- B -->
<g id="node2" class="node"><title>B</title>
<polygon fill="#c0eeff" stroke="black" points="91,-168 7,-168 7,-132 91,-132 91,-168"/>
<text text-anchor="middle" x="49" y="-143.8" font-family="Consolas" font-size="24.00">Lexus</text>
</g>
<!-- A&#45;&gt;B -->
<g id="edge1" class="edge"><title>A&#45;&gt;B</title>
<path fill="none" stroke="#442299" stroke-dasharray="1,5" d="M153.828,-57.7192C114.195,-62.6512 62.9973,-71.9652 50,-88 42.4937,-97.2605 41.3942,-110.169 42.519,-121.727"/>
<polygon fill="#442299" stroke="#442299" points="44.0573,-131.819 38.1018,-122.612 43.3039,-126.877 42.5504,-121.934 42.5504,-121.934 42.5504,-121.934 43.3039,-126.877 46.999,-121.256 44.0573,-131.819 44.0573,-131.819"/>
<text text-anchor="middle" x="193" y="-94.8" font-family="Courier,monospace" font-size="24.00" fill="#994422">same holding company</text>
</g>
<!-- C -->
<g id="node3" class="node"><title>C</title>
<polygon fill="#c0eeff" stroke="black" points="393.5,-168 322.5,-168 322.5,-132 393.5,-132 393.5,-168"/>
<text text-anchor="middle" x="358" y="-143.8" font-family="Consolas" font-size="24.00">Ford</text>
</g>
<!-- A&#45;&gt;C -->
<g id="edge2" class="edge"><title>A&#45;&gt;C</title>
<path fill="none" stroke="#442299" stroke-dasharray="1,5" d="M252.265,-54.9858C279.942,-58.552 313.363,-67.2896 336,-88 345.572,-96.7577 350.984,-109.992 354.042,-121.898"/>
<polygon fill="#442299" stroke="#442299" points="356.169,-131.873 349.683,-123.031 355.126,-126.983 354.084,-122.093 354.084,-122.093 354.084,-122.093 355.126,-126.983 358.485,-121.154 356.169,-131.873 356.169,-131.873"/>
<text text-anchor="middle" x="459" y="-94.8" font-family="Courier,monospace" font-size="24.00" fill="#994422">popular company</text>
</g>
<!-- D -->
<g id="node4" class="node"><title>D</title>
<polygon fill="#c0eeff" stroke="black" points="98,-266 0,-266 0,-230 98,-230 98,-266"/>
<text text-anchor="middle" x="49" y="-241.8" font-family="Consolas" font-size="24.00">Nissan</text>
</g>
<!-- B&#45;&gt;D -->
<g id="edge3" class="edge"><title>B&#45;&gt;D</title>
<path fill="none" stroke="#442299" stroke-dasharray="1,5" d="M49,-168.163C49,-182.497 49,-203.193 49,-219.784"/>
<polygon fill="#442299" stroke="#442299" points="49,-229.986 44.5001,-219.986 49,-224.986 49.0001,-219.986 49.0001,-219.986 49.0001,-219.986 49,-224.986 53.5001,-219.986 49,-229.986 49,-229.986"/>
<text text-anchor="middle" x="149" y="-192.8" font-family="Courier,monospace" font-size="24.00" fill="#994422">formula racing</text>
</g>
</g>
</svg>
