<?xml version="1.0" encoding="UTF-8" standalone="no"?>
<!DOCTYPE svg PUBLIC "-//W3C//DTD SVG 1.1//EN"
 "http://www.w3.org/Graphics/SVG/1.1/DTD/svg11.dtd">
<!-- Generated by graphviz version 2.38.0 (20140413.2041)
 -->
<!-- Title: %3 Pages: 1 -->
<svg width="223pt" height="332pt"
 viewBox="0.00 0.00 222.60 332.00" xmlns="http://www.w3.org/2000/svg" xmlns:xlink="http://www.w3.org/1999/xlink">
<g id="graph0" class="graph" transform="scale(1 1) rotate(0) translate(4 328)">
<title>%3</title>
<polygon fill="white" stroke="none" points="-4,4 -4,-328 218.6,-328 218.6,4 -4,4"/>
<!-- A -->
<g id="node1" class="node"><title>A</title>
<ellipse fill="none" stroke="black" cx="91.5999" cy="-306" rx="27" ry="18"/>
<text text-anchor="middle" x="91.5999" y="-302.3" font-family="Times New Roman,serif" font-size="14.00">A</text>
</g>
<!-- B -->
<g id="node2" class="node"><title>B</title>
<ellipse fill="none" stroke="black" cx="59.5999" cy="-234" rx="27" ry="18"/>
<text text-anchor="middle" x="59.5999" y="-230.3" font-family="Times New Roman,serif" font-size="14.00">B</text>
</g>
<!-- A&#45;&gt;B -->
<g id="edge1" class="edge"><title>A&#45;&gt;B</title>
<path fill="none" stroke="black" d="M78.9779,-289.811C74.2094,-281.574 69.1474,-271.155 65.193,-261.618"/>
<polygon fill="black" stroke="black" points="68.3964,-260.197 61.5319,-252.127 61.8655,-262.716 68.3964,-260.197"/>
</g>
<!-- C -->
<g id="node3" class="node"><title>C</title>
<ellipse fill="none" stroke="black" cx="55.5999" cy="-18" rx="27" ry="18"/>
<text text-anchor="middle" x="55.5999" y="-14.3" font-family="Times New Roman,serif" font-size="14.00">C</text>
</g>
<!-- A&#45;&gt;C -->
<g id="edge2" class="edge"><title>A&#45;&gt;C</title>
<path fill="none" stroke="black" d="M67.7158,-297.309C49.0455,-288.842 25.1108,-273.519 14.5999,-252 -19.5424,-182.101 14.8577,-87.1923 38.3989,-43.2138"/>
<polygon fill="black" stroke="black" points="41.5136,-44.8158 43.3742,-34.3856 35.4153,-41.379 41.5136,-44.8158"/>
</g>
<!-- D -->
<g id="node4" class="node"><title>D</title>
<ellipse fill="none" stroke="black" cx="99.5999" cy="-90" rx="27" ry="18"/>
<text text-anchor="middle" x="99.5999" y="-86.3" font-family="Times New Roman,serif" font-size="14.00">D</text>
</g>
<!-- A&#45;&gt;D -->
<g id="edge3" class="edge"><title>A&#45;&gt;D</title>
<path fill="none" stroke="black" d="M85.1204,-288.293C84.6837,-277.86 85.7196,-264.149 86.5999,-252 88.918,-220.007 90.4881,-212.058 91.5999,-180 92.1544,-164.01 91.7508,-159.999 91.5999,-144 91.5193,-135.459 91.3657,-126.144 91.6315,-117.74"/>
<polygon fill="black" stroke="black" points="95.1282,-117.899 92.2296,-107.708 88.1406,-117.482 95.1282,-117.899"/>
</g>
<!-- E -->
<g id="node5" class="node"><title>E</title>
<ellipse fill="none" stroke="black" cx="187.6" cy="-162" rx="27" ry="18"/>
<text text-anchor="middle" x="187.6" y="-158.3" font-family="Times New Roman,serif" font-size="14.00">E</text>
</g>
<!-- A&#45;&gt;E -->
<g id="edge4" class="edge"><title>A&#45;&gt;E</title>
<path fill="none" stroke="black" d="M103.377,-289.333C113.587,-279.5 127.614,-266.052 137.6,-252 151.865,-231.925 163.108,-206.094 171.812,-187.436"/>
<polygon fill="black" stroke="black" points="174.976,-188.933 176.135,-178.402 168.661,-185.912 174.976,-188.933"/>
</g>
<!-- B&#45;&gt;A -->
<g id="edge5" class="edge"><title>B&#45;&gt;A</title>
<path fill="none" stroke="black" d="M72.2296,-250.202C76.9722,-258.396 82.0043,-268.747 85.9478,-278.24"/>
<polygon fill="black" stroke="black" points="82.7336,-279.633 89.6055,-287.697 89.2622,-277.107 82.7336,-279.633"/>
</g>
<!-- B&#45;&gt;C -->
<g id="edge6" class="edge"><title>B&#45;&gt;C</title>
<path fill="none" stroke="black" d="M55.443,-216.208C51.1797,-179.342 49.251,-91.0448 51.43,-46.1713"/>
<polygon fill="black" stroke="black" points="54.9344,-46.206 52.0538,-36.0103 47.9475,-45.7771 54.9344,-46.206"/>
</g>
<!-- B&#45;&gt;D -->
<g id="edge7" class="edge"><title>B&#45;&gt;D</title>
<path fill="none" stroke="black" d="M59.8403,-215.871C64.1832,-191.193 76.817,-145.45 87.0189,-116.707"/>
<polygon fill="black" stroke="black" points="90.3076,-117.905 90.5085,-107.312 83.7456,-115.468 90.3076,-117.905"/>
</g>
<!-- B&#45;&gt;E -->
<g id="edge8" class="edge"><title>B&#45;&gt;E</title>
<path fill="none" stroke="black" d="M77.4396,-220.324C97.9819,-208.096 131.687,-189.63 156.51,-176.981"/>
<polygon fill="black" stroke="black" points="158.178,-180.06 165.543,-172.443 155.036,-173.805 158.178,-180.06"/>
</g>
<!-- C&#45;&gt;A -->
<g id="edge9" class="edge"><title>C&#45;&gt;A</title>
<path fill="none" stroke="black" d="M51.6754,-35.8355C37.252,-75.6643 -3.59963,-177.89 32.5999,-252 39.6306,-266.394 52.6674,-278.016 64.8022,-286.668"/>
<polygon fill="black" stroke="black" points="63.1294,-289.761 73.3799,-292.44 67.0375,-283.953 63.1294,-289.761"/>
</g>
<!-- C&#45;&gt;B -->
<g id="edge10" class="edge"><title>C&#45;&gt;B</title>
<path fill="none" stroke="black" d="M59.7733,-35.9354C64.0205,-72.8468 65.9418,-160.825 63.7767,-205.685"/>
<polygon fill="black" stroke="black" points="60.2721,-205.655 63.1568,-215.849 67.2592,-206.081 60.2721,-205.655"/>
</g>
<!-- C&#45;&gt;D -->
<g id="edge11" class="edge"><title>C&#45;&gt;D</title>
<path fill="none" stroke="black" d="M70.2492,-33.4245C76.7599,-42.0152 84.0897,-53.1701 89.9383,-63.2296"/>
<polygon fill="black" stroke="black" points="86.9196,-65.0033 94.8269,-72.055 93.0429,-61.6114 86.9196,-65.0033"/>
</g>
<!-- C&#45;&gt;E -->
<g id="edge12" class="edge"><title>C&#45;&gt;E</title>
<path fill="none" stroke="black" d="M79.2576,-27.256C98.9488,-36.3716 126.06,-52.3854 144.6,-72 161.897,-90.3 175.889,-115.371 183.49,-134.241"/>
<polygon fill="black" stroke="black" points="180.238,-135.542 186.95,-143.739 186.815,-133.145 180.238,-135.542"/>
</g>
<!-- D&#45;&gt;A -->
<g id="edge13" class="edge"><title>D&#45;&gt;A</title>
<path fill="none" stroke="black" d="M107.695,-107.236C109.215,-117.725 109.484,-131.668 109.6,-144 109.751,-159.999 110.154,-164.01 109.6,-180 108.488,-212.058 106.918,-220.007 104.6,-252 103.972,-260.671 103.264,-270.139 102.172,-278.642"/>
<polygon fill="black" stroke="black" points="98.6761,-278.339 100.56,-288.765 105.589,-279.439 98.6761,-278.339"/>
</g>
<!-- D&#45;&gt;B -->
<g id="edge14" class="edge"><title>D&#45;&gt;B</title>
<path fill="none" stroke="black" d="M99.3722,-108.056C95.0259,-132.805 82.302,-178.851 72.071,-207.602"/>
<polygon fill="black" stroke="black" points="68.786,-206.394 68.574,-216.987 75.3454,-208.838 68.786,-206.394"/>
</g>
<!-- D&#45;&gt;C -->
<g id="edge15" class="edge"><title>D&#45;&gt;C</title>
<path fill="none" stroke="black" d="M84.8903,-74.496C78.391,-65.9111 71.0837,-54.7862 65.2516,-44.7533"/>
<polygon fill="black" stroke="black" points="68.2829,-43.0024 60.3757,-35.9506 62.1595,-46.3942 68.2829,-43.0024"/>
</g>
<!-- D&#45;&gt;E -->
<g id="edge16" class="edge"><title>D&#45;&gt;E</title>
<path fill="none" stroke="black" d="M119.339,-102.589C133.496,-112.562 152.296,-127.218 166.682,-139.355"/>
<polygon fill="black" stroke="black" points="164.713,-142.279 174.573,-146.155 169.282,-136.976 164.713,-142.279"/>
</g>
<!-- E&#45;&gt;A -->
<g id="edge17" class="edge"><title>E&#45;&gt;A</title>
<path fill="none" stroke="black" d="M188.495,-180.069C184.192,-198.76 171.859,-229.119 155.6,-252 145.989,-265.525 132.634,-278.49 120.44,-288.212"/>
<polygon fill="black" stroke="black" points="118.121,-285.576 112.243,-294.391 122.335,-291.166 118.121,-285.576"/>
</g>
<!-- E&#45;&gt;B -->
<g id="edge18" class="edge"><title>E&#45;&gt;B</title>
<path fill="none" stroke="black" d="M169.892,-175.598C149.366,-187.823 115.577,-206.337 90.702,-219.013"/>
<polygon fill="black" stroke="black" points="89.0156,-215.943 81.6511,-223.559 92.158,-222.198 89.0156,-215.943"/>
</g>
<!-- E&#45;&gt;C -->
<g id="edge19" class="edge"><title>E&#45;&gt;C</title>
<path fill="none" stroke="black" d="M175.037,-145.767C163.949,-126.856 147.743,-94.3692 126.6,-72 113.521,-58.1631 96.177,-46.1181 81.7824,-37.0226"/>
<polygon fill="black" stroke="black" points="83.6105,-34.0379 73.2655,-31.7509 79.9263,-39.99 83.6105,-34.0379"/>
</g>
<!-- E&#45;&gt;D -->
<g id="edge20" class="edge"><title>E&#45;&gt;D</title>
<path fill="none" stroke="black" d="M167.902,-149.441C153.798,-139.508 135.071,-124.913 120.694,-112.794"/>
<polygon fill="black" stroke="black" points="122.662,-109.869 112.799,-105.998 118.095,-115.174 122.662,-109.869"/>
</g>
</g>
</svg>
