<?xml version="1.0" encoding="UTF-8" standalone="no"?>
<!DOCTYPE svg PUBLIC "-//W3C//DTD SVG 1.1//EN"
 "http://www.w3.org/Graphics/SVG/1.1/DTD/svg11.dtd">
<!-- Generated by graphviz version 2.38.0 (20140413.2041)
 -->
<!-- Title: %3 Pages: 1 -->
<svg width="282pt" height="218pt"
 viewBox="0.00 0.00 282.10 218.00" xmlns="http://www.w3.org/2000/svg" xmlns:xlink="http://www.w3.org/1999/xlink">
<g id="graph0" class="graph" transform="scale(1 1) rotate(0) translate(4 214)">
<title>%3</title>
<polygon fill="white" stroke="none" points="-4,4 -4,-214 278.097,-214 278.097,4 -4,4"/>
<!-- A -->
<g id="node1" class="node"><title>A</title>
<ellipse fill="none" stroke="black" cx="111.097" cy="-192" rx="37.0935" ry="18"/>
<text text-anchor="middle" x="111.097" y="-188.3" font-family="Times New Roman,serif" font-size="14.00">Toyota</text>
</g>
<!-- B -->
<g id="node2" class="node"><title>B</title>
<ellipse fill="none" stroke="black" cx="35.0969" cy="-105" rx="32.4942" ry="18"/>
<text text-anchor="middle" x="35.0969" y="-101.3" font-family="Times New Roman,serif" font-size="14.00">Lexus</text>
</g>
<!-- A&#45;&gt;B -->
<g id="edge1" class="edge"><title>A&#45;&gt;B</title>
<path fill="none" stroke="black" d="M77.6635,-183.969C62.2877,-178.9 45.4258,-170.33 36.0969,-156 31.7493,-149.322 30.3906,-141.005 30.4364,-133.084"/>
<polygon fill="black" stroke="black" points="33.93,-133.298 31.1724,-123.068 26.9488,-132.785 33.93,-133.298"/>
<text text-anchor="middle" x="101.097" y="-144.8" font-family="Times New Roman,serif" font-size="14.00">same holding company</text>
</g>
<!-- C -->
<g id="node3" class="node"><title>C</title>
<ellipse fill="none" stroke="black" cx="188.097" cy="-105" rx="28.6953" ry="18"/>
<text text-anchor="middle" x="188.097" y="-101.3" font-family="Times New Roman,serif" font-size="14.00">Ford</text>
</g>
<!-- A&#45;&gt;C -->
<g id="edge2" class="edge"><title>A&#45;&gt;C</title>
<path fill="none" stroke="black" d="M136.727,-178.892C146.898,-173.096 158.062,-165.361 166.097,-156 171.893,-149.247 176.396,-140.725 179.775,-132.64"/>
<polygon fill="black" stroke="black" points="183.103,-133.734 183.351,-123.142 176.552,-131.268 183.103,-133.734"/>
<text text-anchor="middle" x="224.597" y="-144.8" font-family="Times New Roman,serif" font-size="14.00">popular company</text>
</g>
<!-- D -->
<g id="node4" class="node"><title>D</title>
<ellipse fill="none" stroke="black" cx="35.0969" cy="-18" rx="35.194" ry="18"/>
<text text-anchor="middle" x="35.0969" y="-14.3" font-family="Times New Roman,serif" font-size="14.00">Nissan</text>
</g>
<!-- B&#45;&gt;D -->
<g id="edge3" class="edge"><title>B&#45;&gt;D</title>
<path fill="none" stroke="black" d="M35.0969,-86.799C35.0969,-75.1626 35.0969,-59.5479 35.0969,-46.2368"/>
<polygon fill="black" stroke="black" points="38.597,-46.1754 35.0969,-36.1754 31.597,-46.1755 38.597,-46.1754"/>
<text text-anchor="middle" x="75.5969" y="-57.8" font-family="Times New Roman,serif" font-size="14.00">formula racing</text>
</g>
</g>
</svg>
